<svg xmlns="http://www.w3.org/2000/svg" viewBox="0 0 1824 2048"><path d="M94 766q0-160 66-317 63-150 174-261Q447 75 594 12q152-63 317-63 166 0 318 63 147 63 260 176 111 111 174 261 66 157 66 317t-66 317q-62 148-174 260-114 114-260 175-154 65-318 65-163 0-317-65-146-61-260-175-112-112-174-260-66-157-66-317zm86 0q0 154 58 285 55 131 155 231 103 103 234 158 129 57 284 57 156 0 285-57 131-55 234-158 94-89 155-231 57-129 57-285t-57-285q-57-135-155-233-99-99-234-156-129-57-285-57-155 0-284 57-135 57-234 156-104 107-155 233-58 131-58 285zm187 0q0-112 43-213 47-103 116-172 74-74 174-117 101-43 211-43 113 0 211 43 104 41 174 117 74 71 117 172t43 213q0 110-43 211-43 100-117 174-69 69-174 117-98 43-211 43-110 0-211-43-100-46-174-117-69-72-116-174-43-101-43-211zm86 0q0 91 34 178 38 84 99 148 62 60 147 98 90 35 178 35 92 0 179-35 85-38 147-98 59-62 98-148 35-90 35-178 0-91-35-178-39-86-98-148-62-60-147-98-77-35-179-35-94 0-178 35-85 38-147 98-61 64-99 148-34 84-34 178z"/></svg>