<svg xmlns="http://www.w3.org/2000/svg" viewBox="0 0 1277 2048"><path d="M66 766q0-162 47-317 45-155 120-261Q308 80 416 12q105-63 221-63 118 0 223 63 106 67 182 176 77 108 121 261 47 155 47 317t-47 317q-44 151-121 260-82 118-182 175-109 65-223 65-112 0-221-65-102-58-183-175-76-107-120-260-47-155-47-317zm61 0q0 155 39 285 41 134 108 231 70 101 164 158 92 57 199 57 109 0 201-57 84-50 163-158 67-94 109-231 39-130 39-285 0-158-39-285-42-135-109-233-75-104-163-156-92-57-201-57-107 0-199 57-95 59-164 156-65 97-108 233-39 127-39 285zm129 0q0-108 31-213 43-117 82-172 54-79 120-117 70-43 148-43 79 0 149 43 67 39 121 117 51 64 82 172 31 105 31 213 0 106-31 211-25 90-82 174-54 73-121 117-70 43-149 43-78 0-148-43-65-43-120-117-52-76-82-174-31-105-31-211zm61 0q0 89 25 178 24 83 68 148 46 61 104 98 59 35 123 35 66 0 125-35 58-37 104-98 44-65 68-148 24-85 24-178 0-95-24-178t-68-148q-46-61-104-98-56-35-125-35-67 0-123 35-58 37-104 98-44 65-68 148-25 86-25 178z"/></svg>