<svg xmlns="http://www.w3.org/2000/svg" viewBox="0 0 1789 2048"><path d="M82 774q0-163 65-317 61-146 175-260T582 20q152-63 317-63 166 0 318 63 146 63 260 177 112 112 174 260 65 154 65 317 0 164-65 318-62 148-174 260t-260 174q-154 65-318 65-163 0-317-65-148-62-260-174-114-114-175-260-65-154-65-318zm86 0q0 156 57 285 54 129 156 231 104 104 233 158 129 57 285 57t285-57q129-54 233-158 95-91 156-231 57-129 57-285t-57-285q-56-133-156-233t-233-156q-129-57-285-57t-285 57q-133 56-233 156-105 108-156 233-57 129-57 285z"/></svg>