<svg xmlns="http://www.w3.org/2000/svg" viewBox="0 0 1253 2048"><path d="M57 774q0-172 45-317 45-148 123-260Q301 87 408 20q105-63 221-63 115 0 223 63 99 63 182 177 77 109 121 260 47 155 47 317 0 163-47 318-44 151-121 260-74 108-182 174-109 65-223 65-112 0-221-65-103-59-183-174-78-112-123-260-45-145-45-318zm60 0q0 145 41 285 41 134 108 231 70 101 164 158 92 57 199 57 108 0 200-57 93-55 162-158 71-99 111-231 39-130 39-285 0-158-39-285-40-130-111-233-69-99-162-156-92-57-200-57-107 0-199 57-95 59-164 156-65 97-108 233-41 140-41 285z"/></svg>