<svg xmlns="http://www.w3.org/2000/svg" viewBox="0 0 1320 2048"><path d="M2 922q0-59 18-136 22-64 54-110 43-56 78-74 50-29 94-29 46 0 96 29 42 25 76 74 31 41 53 110 15 49 18 107h78V657q-30-5-67-24-41-21-78-74-36-50-51-110-21-62-21-136 0-73 21-135 15-60 51-110 37-53 78-74 50-29 94-29t94 29q41 21 78 74 33 44 51 110 21 64 21 135t-21 136q-18 66-51 110-37 53-78 74-35 19-67 24 0 15-1.5 53t-1.5 62v121h78q3-58 21-107 18-66 51-110 37-53 78-74 50-29 94-29t94 29q41 21 78 74 36 50 51 110 21 62 21 136t-21 135q-15 60-51 110-37 53-78 74-50 29-94 29t-94-29q-41-21-78-74-33-44-51-110-8-23-15-56h-81q1 16 2 46t2 45q12 208 34 317 27 142 78 145H451q89-3 110-462 4-62 4-91h-82q-2 9-6 28t-6 28q-25 73-53 110-34 49-76 74-50 29-96 29-44 0-94-29-35-18-78-74-32-46-54-110Q2 980 2 922z"/></svg>