<svg xmlns="http://www.w3.org/2000/svg" viewBox="0 0 1888 2048"><path d="M4 922q0-66 27-136 25-60 75-110t111-74q72-29 135-29 62 0 135 29 61 24 111 74 51 51 74 110 22 47 28 107h111q3-59 0-121V657q-48-6-98-24-61-24-111-74-51-51-74-110-28-70-28-136 0-65 28-135 23-59 74-110 50-50 111-74 73-29 135-29 63 0 135 29 61 24 111 74 49 49 73 110 29 72 29 135t-29 136q-24 61-73 110-50 50-111 74-47 18-96 24 0 15-1 53t-1 62q0 21 1 61.5t1 59.5h110q6-54 27-107 23-59 74-110t110-74q72-29 135-29t136 29q59 23 110 74t74 110q29 72 29 136 0 62-29 135-23 59-74 110t-110 74q-73 29-136 29t-135-29q-59-23-110-74t-74-110q-3-9-9-28t-9-28H889q4 62 4 91 15 202 49 317 40 142 111 145H643q130-3 160-462 1-16 3-46l3-45H690q-7 31-18 56-23 59-74 110-50 50-111 74-73 29-135 29t-135-29q-61-24-111-74t-75-110Q4 986 4 922z"/></svg>