<svg xmlns="http://www.w3.org/2000/svg" viewBox="0 0 1269 2048"><path d="M182 774q0-19 6-31 5-12 19-26 11-11 24-19 15-6 33-6 19 0 31 6 13 5 27 19 13 13 18 26 6 12 6 31 0 18-6 33-9 15-18 24-14 14-27 19-12 6-31 6-18 0-33-6-13-8-24-19t-19-24q-6-15-6-33zm307 0q0-17 7-31 5-13 18-26 10-10 25-19 15-6 32-6 19 0 31 6 13 5 27 19 13 13 18 26 6 12 6 31 0 18-6 33-9 15-18 24-14 14-27 19-12 6-31 6-17 0-32-6-15-9-25-19-9-9-18-24-7-17-7-33zm308 0q0-19 6-31 5-13 18-26 10-10 25-19 15-6 33-6t30 6q13 5 27 19 13 13 18 26 7 14 7 31 0 16-7 33-9 15-18 24-14 14-27 19-12 6-30 6t-33-6q-15-9-25-19-9-9-18-24-6-15-6-33z"/></svg>