<svg xmlns="http://www.w3.org/2000/svg" viewBox="0 0 968 2048"><path d="M2 1280v-170h356V946q-28-7-69-28-62-41-107-103-51-77-69-151-29-89-29-187 0-95 29-184 23-89 69-152 38-58 107-102Q350 2 418 2q70 0 131 37 63 42 104 102 46 60 72 152 27 85 27 184 0 101-27 187-22 82-72 151-49 68-104 103-38 20-72 28v164h359v170H477v422H358v-422H2zm201-803q0 63 18 119 13 50 45 98 27 41 70 66 37 24 82 24 44 0 84-24 41-24 69-66 25-42 45-98 17-47 17-119t-17-119q-20-56-45-98-38-47-69-65-44-23-84-23-38 0-82 23-33 19-70 65-32 48-45 98-18 58-18 119z"/></svg>