<svg xmlns="http://www.w3.org/2000/svg" viewBox="0 0 1384 2048"><path d="M2 1280v-170h510V946q-46-8-100-28-78-36-152-103-70-76-100-151-39-82-39-187 0-102 39-184 37-89 100-152 60-60 152-102Q499 2 598 2t186 37q97 44 150 102 58 55 102 152 39 91 39 184 0 95-39 187-38 87-102 151T784 918q-57 21-102 28v164h512v170H682v422H512v-422H2zm289-803q0 63 24 119 22 54 66 98 39 39 98 66 56 24 119 24 64 0 119-24 59-27 98-66 45-51 66-98 22-55 22-119t-22-119q-21-47-66-98-49-43-98-65-64-23-119-23t-119 23q-49 22-98 65-39 39-66 98-24 58-24 119z"/></svg>