<svg xmlns="http://www.w3.org/2000/svg" viewBox="0 0 1140 2048"><path d="M2 1057q0-93 25-185 30-93 71-151 46-67 107-103 59-36 129-36 69 0 131 36 34 21 59 48l287-408H418V88h596v850H895V377L610 784q26 58 33 88 25 92 25 185 0 94-25 186-26 82-72 152-54 70-106 102-64 37-131 37-68 0-129-37-62-36-107-102-44-67-71-152-25-92-25-186zm119 0q0 55 16 121 13 50 47 96 27 43 66 65 45 25 84 25 42 0 84-25 31-16 67-65 34-46 47-96 17-70 17-121 0-49-17-119-16-60-47-96-38-51-67-66-40-24-84-24-40 0-84 24-38 21-66 66-31 36-47 96-16 66-16 119z"/></svg>